<?xml version="1.0" standalone="no"?>
<!DOCTYPE svg PUBLIC "-//W3C//DTD SVG 20010904//EN"
 "http://www.w3.org/TR/2001/REC-SVG-20010904/DTD/svg10.dtd">
<svg version="1.0" xmlns="http://www.w3.org/2000/svg"
 width="200.000000pt" height="58.000000pt" viewBox="0 0 200.000000 58.000000"
 preserveAspectRatio="xMidYMid meet">
<metadata>
Created by potrace 1.15, written by Peter Selinger 2001-2017
</metadata>
<g transform="translate(0.000000,58.000000) scale(0.100000,-0.100000)"
fill="#000000" stroke="none">
<path d="M127 473 c-4 -3 -7 -85 -7 -180 l0 -174 170 3 c139 2 173 6 180 18 5
8 10 88 10 178 l0 162 -173 0 c-96 0 -177 -3 -180 -7z"/>
<path d="M1230 305 l0 -115 54 0 c72 0 80 11 80 117 1 100 -9 113 -86 113
l-48 0 0 -115z"/>
<path d="M710 276 l0 -85 60 1 60 1 0 83 c0 83 0 84 -25 84 -24 0 -25 -2 -25
-71 0 -52 -3 -70 -12 -67 -8 3 -14 29 -16 71 -3 59 -5 67 -22 67 -18 0 -20 -7
-20 -84z"/>
<path d="M966 344 c-21 -20 -22 -126 -2 -143 8 -7 34 -11 58 -9 l43 3 3 66 c2
51 -1 71 -13 83 -21 20 -69 21 -89 0z"/>
<path d="M1406 338 c-18 -25 -21 -100 -6 -129 8 -14 21 -19 56 -19 39 0 46 3
55 28 12 31 5 108 -12 128 -19 23 -76 17 -93 -8z"/>
</g>
</svg>
